SplineFontDB: 3.2
FontName: NotoSerifYezidi-Regular
FullName: Noto Serif Yezidi Regular
FamilyName: Noto Serif Yezidi
Weight: Book
Copyright: Copyright 2020 Google Inc. All Rights Reserved.
Version: 1.000
ItalicAngle: 0
UnderlinePosition: -125
UnderlineWidth: 50
Ascent: 800
Descent: 200
InvalidEm: 0
sfntRevision: 0x00010000
LayerCount: 2
Layer: 0 1 "+BBcEMAQ0BD0EOAQ5 +BD8EOwQwBD0A" 1
Layer: 1 1 "+BB8ENQRABDUENAQ9BDgEOQAA +BD8EOwQwBD0A" 0
XUID: [1021 59 1751208496 17850]
StyleMap: 0x0040
FSType: 0
OS2Version: 4
OS2_WeightWidthSlopeOnly: 1
OS2_UseTypoMetrics: 0
CreationTime: 1565702807
ModificationTime: 1632260860
PfmFamily: 17
TTFWeight: 400
TTFWidth: 5
LineGap: 0
VLineGap: 0
Panose: 2 2 5 2 6 5 5 2 2 4
OS2TypoAscent: 1068
OS2TypoAOffset: 0
OS2TypoDescent: -292
OS2TypoDOffset: 0
OS2TypoLinegap: 0
OS2WinAscent: 1068
OS2WinAOffset: 0
OS2WinDescent: 292
OS2WinDOffset: 0
HheadAscent: 1068
HheadAOffset: 0
HheadDescent: -292
HheadDOffset: 0
OS2SubXSize: 650
OS2SubYSize: 600
OS2SubXOff: 0
OS2SubYOff: 75
OS2SupXSize: 650
OS2SupYSize: 600
OS2SupXOff: 0
OS2SupYOff: 350
OS2StrikeYSize: 50
OS2StrikeYPos: 322
OS2CapHeight: 714
OS2XHeight: 536
OS2Vendor: 'GOOG'
OS2CodePages: 00000001.00000000
OS2UnicodeRanges: 00002001.02000000.00000000.00000000
Lookup: 258 8 0 "'kern' Horizontal Kerning in Latin lookup 0" { "'kern' Horizontal Kerning in Latin lookup 0 per glyph data 0"  "'kern' Horizontal Kerning in Latin lookup 0 kerning class 1"  } ['kern' ('DFLT' <'dflt' > 'latn' <'dflt' > ) ]
Lookup: 260 0 0 "'mark' Mark Positioning in Latin lookup 1" { "'mark' Mark Positioning in Latin lookup 1 subtable"  } ['mark' ('DFLT' <'dflt' > 'latn' <'dflt' > ) ]
MarkAttachClasses: 1
DEI: 91125
KernClass2: 28+ 31 "'kern' Horizontal Kerning in Latin lookup 0 kerning class 1"
 28 vayezi umyezi wawyezi owyezi
 22 dalyezi yotyezi etyezi
 23 rayezi rhayezi shinyezi
 26 cimyezi chimyezi chhimyezi
 16 zeyezi xheynyezi
 15 sinyezi nunyezi
 16 kafyezi khafyezi
 14 ewyezi hayyezi
 14 beyezi hhayezi
 7 zalyezi

StartChar: .notdef
Encoding: 55 -1 0
Width: 600
Flags: W
HStem: 0 51<145 454> 663 51<145 454>
VStem: 94 51<51 663> 454 51<51 663>
LayerCount: 2
Fore
SplineSet
94 0 m 1,0,-1
 94 714 l 1,1,-1
 505 714 l 1,2,-1
 505 0 l 1,3,-1
 94 0 l 1,0,-1
145 51 m 1,4,-1
 454 51 l 1,5,-1
 454 663 l 1,6,-1
 145 663 l 1,7,-1
 145 51 l 1,4,-1
EndSplineSet
EndChar

StartChar: elifyezi
Encoding: 8 69248 4
Width: 244
GlyphClass: 2
Flags: W
HStem: 0 21G<112 148.5>
VStem: 38 81<615.687 719.158> 112 38<0 202.25>
AnchorPoint: "+BBEENQQ3BEsEPARPBD0EPQQ+BDUA--1" 54 792 basechar 0
AnchorPoint: "+BBEENQQ3BEsEPARPBD0EPQQ+BDUA--0" 54 795 basechar 0
LayerCount: 2
Fore
SplineSet
112 0 m 1,0,1
 112 212 112 212 94 385 c 128,-1,2
 76 558 76 558 38 714 c 1,3,-1
 114 770 l 1,4,-1
 119 770 l 1,5,6
 131 684 131 684 138.5 603 c 128,-1,7
 146 522 146 522 149 437 c 128,-1,8
 152 352 152 352 152 251 c 0,9,10
 152 207 152 207 151.5 160 c 128,-1,11
 151 113 151 113 150 71.5 c 128,-1,12
 149 30 149 30 148 0 c 1,13,-1
 112 0 l 1,0,1
EndSplineSet
EndChar

StartChar: beyezi
Encoding: 9 69249 5
Width: 533
Flags: W
HStem: 0 21G<243 305>
LayerCount: 2
Fore
SplineSet
270 0 m 1,0,1
 216 106 216 106 156.5 204 c 128,-1,2
 97 302 97 302 34 394 c 1,3,-1
 100 468 l 1,4,-1
 106 468 l 1,5,6
 157 389 157 389 205.5 305 c 128,-1,7
 254 221 254 221 299 130 c 1,8,9
 337 220 337 220 377.5 302 c 128,-1,10
 418 384 418 384 462 463 c 1,11,-1
 493 442 l 1,12,13
 438 345 438 345 384 232 c 128,-1,14
 330 119 330 119 280 0 c 1,15,-1
 270 0 l 1,0,1
EndSplineSet
EndChar

StartChar: peyezi
Encoding: 10 69250 6
Width: 467
Flags: W
VStem: 283 95<274.633 329.5> 307 91<-48.4807 14>
LayerCount: 2
Fore
SplineSet
90 -293 m 1,0,-1
 70 -270 l 1,1,-1
 245 -119 l 2,2,3
 285 -84 285 -84 296 -70 c 128,-1,4
 307 -56 307 -56 307 -42 c 256,5,6
 307 -28 307 -28 299 -18 c 128,-1,7
 291 -8 291 -8 268 2 c 2,8,-1
 89 88 l 1,9,-1
 89 107 l 1,10,-1
 246 228 l 2,11,12
 268 245 268 245 275.5 255 c 128,-1,13
 283 265 283 265 283 276 c 256,14,15
 283 287 283 287 276 294 c 128,-1,16
 269 301 269 301 248 309 c 2,17,-1
 50 388 l 1,18,-1
 50 394 l 1,19,-1
 102 466 l 1,20,-1
 108 466 l 1,21,-1
 312 384 l 2,22,23
 348 369 348 369 363 354.5 c 128,-1,24
 378 340 378 340 378 319 c 0,25,26
 378 300 378 300 363 281 c 128,-1,27
 348 262 348 262 301 227 c 2,28,-1
 189 142 l 1,29,-1
 308 87 l 2,30,31
 359 64 359 64 378.5 45.5 c 128,-1,32
 398 27 398 27 398 1 c 0,33,34
 398 -14 398 -14 390 -29 c 128,-1,35
 382 -44 382 -44 362 -63.5 c 128,-1,36
 342 -83 342 -83 304 -115 c 2,37,-1
 90 -293 l 1,0,-1
EndSplineSet
EndChar

StartChar: pheyezi
Encoding: 11 69251 7
Width: 472
Flags: W
LayerCount: 2
Fore
SplineSet
362 -195 m 1,0,1
 319 -124 319 -124 280 -49.5 c 128,-1,2
 241 25 241 25 203 108 c 0,3,4
 170 180 170 180 130.5 254 c 128,-1,5
 91 328 91 328 40 413 c 1,6,-1
 42 419 l 1,7,-1
 120 463 l 1,8,9
 163 393 163 393 202 318 c 128,-1,10
 241 243 241 243 279 160 c 0,11,12
 312 88 312 88 351.5 14.5 c 128,-1,13
 391 -59 391 -59 442 -145 c 1,14,-1
 440 -151 l 1,15,-1
 362 -195 l 1,0,1
EndSplineSet
EndChar

StartChar: theyezi
Encoding: 12 69252 8
Width: 519
Flags: W
HStem: 0 92<62 251 291 456>
VStem: 251 43<92 300.409>
LayerCount: 2
Fore
SplineSet
28 0 m 1,0,-1
 28 6 l 1,1,-1
 62 92 l 1,2,-1
 251 92 l 1,3,4
 250 184 250 184 239.5 263.5 c 128,-1,5
 229 343 229 343 208 416 c 1,6,-1
 268 463 l 1,7,-1
 273 463 l 1,8,9
 284 401 284 401 289 342 c 128,-1,10
 294 283 294 283 294 209 c 0,11,12
 294 176 294 176 293 145.5 c 128,-1,13
 292 115 292 115 291 92 c 1,14,-1
 491 92 l 1,15,-1
 491 87 l 1,16,-1
 456 0 l 1,17,-1
 28 0 l 1,0,-1
EndSplineSet
EndChar

StartChar: seyezi
Encoding: 13 69253 9
Width: 498
Flags: W
HStem: 0 21G<286 336> 371 92<132 451>
LayerCount: 2
Fore
SplineSet
301 0 m 1,0,1
 271 75 271 75 225 143 c 128,-1,2
 179 211 179 211 129 269.5 c 128,-1,3
 79 328 79 328 34 371 c 1,4,-1
 34 377 l 1,5,-1
 68 463 l 1,6,-1
 486 463 l 1,7,-1
 486 458 l 1,8,-1
 451 371 l 1,9,-1
 132 371 l 1,10,11
 190 298 190 298 245.5 201.5 c 128,-1,12
 301 105 301 105 336 0 c 1,13,-1
 301 0 l 1,0,1
EndSplineSet
EndChar

StartChar: cimyezi
Encoding: 14 69254 10
Width: 559
Flags: W
HStem: 0 83<103 412>
LayerCount: 2
Fore
SplineSet
20 0 m 1,0,-1
 20 9 l 1,1,2
 88 116 88 116 149 229 c 128,-1,3
 210 342 210 342 263 463 c 1,4,-1
 273 463 l 1,5,6
 331 354 331 354 392.5 259.5 c 128,-1,7
 454 165 454 165 519 83 c 1,8,-1
 486 0 l 1,9,-1
 20 0 l 1,0,-1
103 83 m 1,10,-1
 412 83 l 1,11,12
 368 146 368 146 326.5 211 c 128,-1,13
 285 276 285 276 246 344 c 1,14,15
 212 277 212 277 175.5 209.5 c 128,-1,16
 139 142 139 142 103 83 c 1,10,-1
EndSplineSet
EndChar

StartChar: chimyezi
Encoding: 15 69255 11
Width: 699
Flags: W
HStem: 0 83<103 412>
LayerCount: 2
Fore
SplineSet
20 0 m 1,0,-1
 20 9 l 1,1,2
 88 116 88 116 149 229 c 128,-1,3
 210 342 210 342 263 463 c 1,4,-1
 273 463 l 1,5,6
 326 363 326 363 382.5 274.5 c 128,-1,7
 439 186 439 186 498 108 c 1,8,-1
 637 421 l 1,9,-1
 667 407 l 1,10,-1
 486 0 l 1,11,-1
 20 0 l 1,0,-1
103 83 m 1,12,-1
 412 83 l 1,13,14
 368 146 368 146 326.5 211 c 128,-1,15
 285 276 285 276 246 344 c 1,16,17
 212 277 212 277 175.5 209.5 c 128,-1,18
 139 142 139 142 103 83 c 1,12,-1
EndSplineSet
EndChar

StartChar: chhimyezi
Encoding: 16 69256 12
Width: 699
Flags: W
HStem: -100 30<20 486> 0 83<103 412>
LayerCount: 2
Fore
SplineSet
20 0 m 1,0,-1
 20 9 l 1,1,2
 88 116 88 116 149 229 c 128,-1,3
 210 342 210 342 263 463 c 1,4,-1
 273 463 l 1,5,6
 326 363 326 363 382.5 274.5 c 128,-1,7
 439 186 439 186 498 108 c 1,8,-1
 637 421 l 1,9,-1
 667 407 l 1,10,-1
 486 0 l 1,11,-1
 20 0 l 1,0,-1
103 83 m 1,12,-1
 412 83 l 1,13,14
 368 146 368 146 326.5 211 c 128,-1,15
 285 276 285 276 246 344 c 1,16,17
 212 277 212 277 175.5 209.5 c 128,-1,18
 139 142 139 142 103 83 c 1,12,-1
20 -100 m 1,19,-1
 20 -70 l 1,20,-1
 486 -70 l 1,21,-1
 486 -100 l 1,22,-1
 20 -100 l 1,19,-1
EndSplineSet
EndChar

StartChar: hhayezi
Encoding: 17 69257 13
Width: 559
Flags: W
HStem: 0 21G<257 322.5> 380 83<147 456>
LayerCount: 2
Fore
SplineSet
286 0 m 1,0,1
 228 109 228 109 166.5 203.5 c 128,-1,2
 105 298 105 298 40 380 c 1,3,-1
 73 463 l 1,4,-1
 539 463 l 1,5,-1
 539 454 l 1,6,7
 472 347 472 347 410.5 234 c 128,-1,8
 349 121 349 121 296 0 c 1,9,-1
 286 0 l 1,0,1
147 380 m 1,10,11
 191 317 191 317 232.5 252 c 128,-1,12
 274 187 274 187 313 119 c 1,13,14
 347 186 347 186 383.5 253.5 c 128,-1,15
 420 321 420 321 456 380 c 1,16,-1
 147 380 l 1,10,11
EndSplineSet
EndChar

StartChar: xayezi
Encoding: 18 69258 14
Width: 600
Flags: W
HStem: 0 83<124 433> 387 76<68 249 336 506>
LayerCount: 2
Fore
SplineSet
41 0 m 1,0,-1
 41 9 l 1,1,2
 98 99 98 99 150.5 193.5 c 128,-1,3
 203 288 203 288 249 387 c 1,4,-1
 40 387 l 1,5,-1
 40 393 l 1,6,-1
 68 463 l 1,7,-1
 533 463 l 1,8,-1
 533 457 l 1,9,-1
 506 387 l 1,10,-1
 336 387 l 1,11,12
 434 216 434 216 540 83 c 1,13,-1
 507 0 l 1,14,-1
 41 0 l 1,0,-1
124 83 m 1,15,-1
 433 83 l 1,16,17
 389 146 389 146 347.5 211 c 128,-1,18
 306 276 306 276 267 344 c 1,19,20
 233 277 233 277 196.5 209.5 c 128,-1,21
 160 142 160 142 124 83 c 1,15,-1
EndSplineSet
EndChar

StartChar: dalyezi
Encoding: 19 69259 15
Width: 531
Flags: W
HStem: 0 92<107 404> 371 92<127 424>
VStem: 62 66<102.731 204.275 208.406 371> 403 66<92 254.594 258.725 360.269> 424 25<271.253 368.831>
LayerCount: 2
Fore
SplineSet
67 0 m 1,0,-1
 67 6 l 1,1,2
 82 120 82 120 82 207 c 0,3,4
 82 252 82 252 77.5 294 c 128,-1,5
 73 336 73 336 62 377 c 1,6,-1
 62 383 l 1,7,-1
 97 463 l 1,8,-1
 464 463 l 1,9,-1
 464 457 l 1,10,11
 449 343 449 343 449 256 c 0,12,13
 449 211 449 211 454 169 c 128,-1,14
 459 127 459 127 469 86 c 1,15,-1
 469 80 l 1,16,-1
 434 0 l 1,17,-1
 67 0 l 1,0,-1
128 335 m 0,18,19
 128 273 128 273 121.5 211 c 128,-1,20
 115 149 115 149 107 92 c 1,21,-1
 404 92 l 1,22,23
 403 111 403 111 403 128 c 0,24,25
 403 190 403 190 409.5 252 c 128,-1,26
 416 314 416 314 424 371 c 1,27,-1
 127 371 l 1,28,29
 128 352 128 352 128 335 c 0,18,19
EndSplineSet
EndChar

StartChar: zalyezi
Encoding: 20 69260 16
Width: 531
Flags: W
HStem: 0 92<141 404> 371 92<123 424>
VStem: 78 45<231.5 370.545> 403 66<92 254.594 258.725 360.269> 424 25<271.253 368.831>
LayerCount: 2
Fore
SplineSet
92 -293 m 1,0,-1
 78 303 l 2,1,2
 77 336 77 336 84 369.5 c 128,-1,3
 91 403 91 403 100.5 429 c 128,-1,4
 110 455 110 455 118 463 c 1,5,-1
 464 463 l 1,6,-1
 464 457 l 1,7,8
 449 343 449 343 449 256 c 0,9,10
 449 211 449 211 454 169 c 128,-1,11
 459 127 459 127 469 86 c 1,12,-1
 469 80 l 1,13,-1
 434 0 l 1,14,-1
 141 0 l 1,15,-1
 154 -259 l 1,16,-1
 97 -293 l 1,17,-1
 92 -293 l 1,0,-1
403 128 m 0,18,19
 403 190 403 190 409.5 252 c 128,-1,20
 416 314 416 314 424 371 c 1,21,-1
 123 371 l 1,22,-1
 137 92 l 1,23,-1
 404 92 l 1,24,25
 403 111 403 111 403 128 c 0,18,19
EndSplineSet
EndChar

StartChar: rayezi
Encoding: 21 69261 17
Width: 643
Flags: W
HStem: 0 21G<73 116.5> 371 92<139 515>
VStem: 73 35<0 67.6426> 97 49<62.541 339.845> 477 53<84.457 301.597>
LayerCount: 2
Fore
SplineSet
544 -5 m 0,0,1
 509 -5 509 -5 493 22 c 128,-1,2
 477 49 477 49 477 96 c 0,3,4
 477 133 477 133 481.5 180 c 128,-1,5
 486 227 486 227 494.5 277 c 128,-1,6
 503 327 503 327 515 371 c 1,7,-1
 139 371 l 1,8,9
 142 348 142 348 144 323.5 c 128,-1,10
 146 299 146 299 146 271 c 0,11,12
 146 198 146 198 135.5 126 c 128,-1,13
 125 54 125 54 108 0 c 1,14,-1
 73 0 l 1,15,16
 82 33 82 33 89.5 74 c 128,-1,17
 97 115 97 115 97 169 c 0,18,19
 97 278 97 278 64 377 c 1,20,-1
 99 463 l 1,21,-1
 576 463 l 1,22,-1
 576 457 l 1,23,24
 554 397 554 397 542 335 c 128,-1,25
 530 273 530 273 530 204 c 0,26,27
 530 137 530 137 547 94.5 c 128,-1,28
 564 52 564 52 595 40 c 1,29,30
 591 16 591 16 577 5.5 c 128,-1,31
 563 -5 563 -5 544 -5 c 0,0,1
EndSplineSet
EndChar

StartChar: rhayezi
Encoding: 22 69262 18
Width: 643
Flags: W
HStem: 0 21G<73 116.5> 371 92<139 515> 533 30<99 576>
VStem: 73 35<0 67.6426> 97 49<62.541 339.845> 477 53<84.457 301.597>
LayerCount: 2
Fore
SplineSet
99 533 m 1,0,-1
 99 563 l 1,1,-1
 576 563 l 1,2,-1
 576 533 l 1,3,-1
 99 533 l 1,0,-1
544 -5 m 0,4,5
 509 -5 509 -5 493 22 c 128,-1,6
 477 49 477 49 477 96 c 0,7,8
 477 133 477 133 481.5 180 c 128,-1,9
 486 227 486 227 494.5 277 c 128,-1,10
 503 327 503 327 515 371 c 1,11,-1
 139 371 l 1,12,13
 142 348 142 348 144 323.5 c 128,-1,14
 146 299 146 299 146 271 c 0,15,16
 146 198 146 198 135.5 126 c 128,-1,17
 125 54 125 54 108 0 c 1,18,-1
 73 0 l 1,19,20
 82 33 82 33 89.5 74 c 128,-1,21
 97 115 97 115 97 169 c 0,22,23
 97 278 97 278 64 377 c 1,24,-1
 99 463 l 1,25,-1
 576 463 l 1,26,-1
 576 457 l 1,27,28
 554 397 554 397 542 335 c 128,-1,29
 530 273 530 273 530 204 c 0,30,31
 530 137 530 137 547 94.5 c 128,-1,32
 564 52 564 52 595 40 c 1,33,34
 591 16 591 16 577 5.5 c 128,-1,35
 563 -5 563 -5 544 -5 c 0,4,5
EndSplineSet
EndChar

StartChar: zayezi
Encoding: 23 69263 19
Width: 372
Flags: W
VStem: 22 310
LayerCount: 2
Fore
SplineSet
269 -5 m 1,0,1
 212 48 212 48 150 100 c 128,-1,2
 88 152 88 152 22 204 c 1,3,-1
 22 209 l 1,4,5
 90 273 90 273 152.5 336 c 128,-1,6
 215 399 215 399 271 463 c 1,7,-1
 292 444 l 1,8,9
 250 396 250 396 206.5 348 c 128,-1,10
 163 300 163 300 116 252 c 1,11,12
 232 161 232 161 332 73 c 1,13,-1
 332 67 l 1,14,-1
 269 -5 l 1,0,1
EndSplineSet
EndChar

StartChar: jayezi
Encoding: 24 69264 20
Width: 666
Flags: W
HStem: 0 21G<59 99.5 307.5 356.5>
LayerCount: 2
Fore
SplineSet
322 0 m 1,0,1
 293 45 293 45 263 88.5 c 128,-1,2
 233 132 233 132 202 174 c 1,3,4
 173 129 173 129 144 86 c 128,-1,5
 115 43 115 43 84 0 c 1,6,-1
 59 19 l 1,7,8
 90 62 90 62 121 107.5 c 128,-1,9
 152 153 152 153 182 201 c 1,10,11
 144 251 144 251 105 299 c 128,-1,12
 66 347 66 347 26 394 c 1,13,-1
 82 468 l 1,14,-1
 88 468 l 1,15,16
 125 423 125 423 161 377 c 128,-1,17
 197 331 197 331 232 283 c 1,18,19
 258 327 258 327 283.5 372 c 128,-1,20
 309 417 309 417 334 463 c 1,21,-1
 344 463 l 1,22,23
 373 418 373 418 403 374.5 c 128,-1,24
 433 331 433 331 464 289 c 1,25,26
 493 334 493 334 522 377 c 128,-1,27
 551 420 551 420 582 463 c 1,28,-1
 607 444 l 1,29,30
 545 360 545 360 484 263 c 1,31,32
 522 213 522 213 561 164.5 c 128,-1,33
 600 116 600 116 640 69 c 1,34,-1
 584 -5 l 1,35,-1
 578 -5 l 1,36,37
 541 40 541 40 504.5 86 c 128,-1,38
 468 132 468 132 434 180 c 1,39,40
 381 93 381 93 332 0 c 1,41,-1
 322 0 l 1,0,1
252 256 m 1,42,43
 278 218 278 218 304 179.5 c 128,-1,44
 330 141 330 141 354 101 c 1,45,46
 383 154 383 154 414 207 c 1,47,48
 388 245 388 245 362 283.5 c 128,-1,49
 336 322 336 322 312 362 c 1,50,51
 283 309 283 309 252 256 c 1,42,43
EndSplineSet
EndChar

StartChar: sinyezi
Encoding: 25 69265 21
Width: 755
Flags: W
HStem: -5 92<128 351.453 381 616>
VStem: 113 53<156.403 375.709> 347 34<87 160.935> 366 53<157.357 375.709> 609 49<118.155 393.288> 647 35<387.706 458>
LayerCount: 2
Fore
SplineSet
67 -5 m 1,0,-1
 67 1 l 1,1,2
 90 61 90 61 101.5 123 c 128,-1,3
 113 185 113 185 113 254 c 0,4,5
 113 322 113 322 96.5 364 c 128,-1,6
 80 406 80 406 48 418 c 1,7,8
 52 442 52 442 66 452.5 c 128,-1,9
 80 463 80 463 99 463 c 0,10,11
 134 463 134 463 150 436 c 128,-1,12
 166 409 166 409 166 362 c 0,13,14
 166 325 166 325 161.5 278 c 128,-1,15
 157 231 157 231 148.5 181 c 128,-1,16
 140 131 140 131 128 87 c 1,17,-1
 347 87 l 1,18,19
 366 167 366 167 366 254 c 0,20,21
 366 322 366 322 349.5 364 c 128,-1,22
 333 406 333 406 301 418 c 1,23,24
 305 442 305 442 319 452.5 c 128,-1,25
 333 463 333 463 352 463 c 0,26,27
 387 463 387 463 403 436 c 128,-1,28
 419 409 419 409 419 362 c 0,29,30
 419 325 419 325 414.5 278 c 128,-1,31
 410 231 410 231 401.5 181 c 128,-1,32
 393 131 393 131 381 87 c 1,33,-1
 616 87 l 1,34,35
 613 110 613 110 611 134.5 c 128,-1,36
 609 159 609 159 609 187 c 0,37,38
 609 261 609 261 620 332.5 c 128,-1,39
 631 404 631 404 647 458 c 1,40,-1
 682 458 l 1,41,42
 673 425 673 425 665.5 384 c 128,-1,43
 658 343 658 343 658 289 c 0,44,45
 658 180 658 180 691 81 c 1,46,-1
 656 -5 l 1,47,-1
 67 -5 l 1,0,-1
EndSplineSet
EndChar

StartChar: shinyezi
Encoding: 26 69266 22
Width: 755
Flags: W
HStem: 0 21G<73 116.5> 371 92<139 374 403.547 627>
VStem: 73 35<0 67.6426> 97 49<62.541 339.845> 336 53<84.457 300.643> 374 34<297.065 371> 589 53<84.457 301.597>
LayerCount: 2
Fore
SplineSet
403 -5 m 0,0,1
 368 -5 368 -5 352 22 c 128,-1,2
 336 49 336 49 336 96 c 0,3,4
 336 133 336 133 340.5 180 c 128,-1,5
 345 227 345 227 353.5 277 c 128,-1,6
 362 327 362 327 374 371 c 1,7,-1
 139 371 l 1,8,9
 142 348 142 348 144 323.5 c 128,-1,10
 146 299 146 299 146 271 c 0,11,12
 146 198 146 198 135.5 126 c 128,-1,13
 125 54 125 54 108 0 c 1,14,-1
 73 0 l 1,15,16
 82 33 82 33 89.5 74 c 128,-1,17
 97 115 97 115 97 169 c 0,18,19
 97 278 97 278 64 377 c 1,20,-1
 99 463 l 1,21,-1
 688 463 l 1,22,-1
 688 457 l 1,23,24
 666 397 666 397 654 335 c 128,-1,25
 642 273 642 273 642 204 c 0,26,27
 642 137 642 137 659 94.5 c 128,-1,28
 676 52 676 52 707 40 c 1,29,30
 703 16 703 16 689 5.5 c 128,-1,31
 675 -5 675 -5 656 -5 c 0,32,33
 621 -5 621 -5 605 22 c 128,-1,34
 589 49 589 49 589 96 c 0,35,36
 589 133 589 133 593.5 180 c 128,-1,37
 598 227 598 227 606.5 277 c 128,-1,38
 615 327 615 327 627 371 c 1,39,-1
 408 371 l 1,40,41
 389 291 389 291 389 204 c 0,42,43
 389 137 389 137 406 94.5 c 128,-1,44
 423 52 423 52 454 40 c 1,45,46
 450 16 450 16 436 5.5 c 128,-1,47
 422 -5 422 -5 403 -5 c 0,0,1
EndSplineSet
EndChar

StartChar: sadyezi
Encoding: 27 69267 23
Width: 539
Flags: W
HStem: 0 21G<253 295> 185 92<72 244 301 466>
VStem: 252 46<0 183.562>
LayerCount: 2
Fore
SplineSet
38 185 m 1,0,-1
 38 191 l 1,1,-1
 72 277 l 1,2,-1
 244 277 l 1,3,4
 241 313 241 313 237.5 348 c 128,-1,5
 234 383 234 383 229 417 c 1,6,-1
 285 463 l 1,7,-1
 290 463 l 1,8,9
 295 417 295 417 297.5 370.5 c 128,-1,10
 300 324 300 324 301 277 c 1,11,-1
 501 277 l 1,12,-1
 501 272 l 1,13,-1
 466 185 l 1,14,-1
 301 185 l 1,15,16
 300 139 300 139 298 92.5 c 128,-1,17
 296 46 296 46 294 0 c 1,18,-1
 253 0 l 1,19,20
 253 47 253 47 252 93 c 128,-1,21
 251 139 251 139 249 185 c 1,22,-1
 38 185 l 1,0,-1
EndSplineSet
EndChar

StartChar: dadyezi
Encoding: 28 69268 24
Width: 483
Flags: W
HStem: 0 21G<44 82.9565 377.978 417.635>
LayerCount: 2
Fore
SplineSet
66 0 m 1,0,-1
 44 19 l 1,1,-1
 44 24 l 1,2,-1
 200 207 l 1,3,-1
 21 395 l 1,4,-1
 21 401 l 1,5,-1
 85 463 l 1,6,-1
 261 279 l 1,7,-1
 418 463 l 1,8,-1
 439 445 l 1,9,-1
 439 439 l 1,10,-1
 283 255 l 1,11,-1
 462 68 l 1,12,-1
 462 63 l 1,13,-1
 397 0 l 1,14,-1
 222 184 l 1,15,-1
 66 0 l 1,0,-1
EndSplineSet
EndChar

StartChar: tayezi
Encoding: 29 69269 25
Width: 398
Flags: W
HStem: 371 92<54 233.93>
VStem: 269 47<168.267 337.281>
LayerCount: 2
Fore
SplineSet
284 -293 m 1,0,-1
 269 264 l 2,1,2
 268 322 268 322 238.5 346.5 c 128,-1,3
 209 371 209 371 147 371 c 2,4,-1
 16 371 l 1,5,-1
 16 377 l 1,6,-1
 54 463 l 1,7,-1
 158 463 l 2,8,9
 240 463 240 463 276 422.5 c 128,-1,10
 312 382 312 382 316 298 c 2,11,-1
 346 -258 l 1,12,-1
 289 -293 l 1,13,-1
 284 -293 l 1,0,-1
EndSplineSet
EndChar

StartChar: zeyezi
Encoding: 30 69270 26
Width: 551
Flags: W
HStem: 0 21G<174 213.5 338 377.5> 185 92<68 165 217 329 381 482>
VStem: 173 38<0 185> 337 38<0 185>
LayerCount: 2
Fore
SplineSet
174 0 m 1,0,1
 174 47 174 47 173 93 c 128,-1,2
 172 139 172 139 170 185 c 1,3,-1
 34 185 l 1,4,-1
 34 191 l 1,5,-1
 68 277 l 1,6,-1
 165 277 l 1,7,8
 162 314 162 314 158.5 350.5 c 128,-1,9
 155 387 155 387 150 423 c 1,10,-1
 200 463 l 1,11,-1
 205 463 l 1,12,13
 210 416 210 416 212.5 370 c 128,-1,14
 215 324 215 324 216 277 c 1,15,-1
 329 277 l 1,16,17
 326 314 326 314 322.5 350.5 c 128,-1,18
 319 387 319 387 314 423 c 1,19,-1
 364 463 l 1,20,-1
 369 463 l 1,21,22
 374 416 374 416 376.5 370 c 128,-1,23
 379 324 379 324 380 277 c 1,24,-1
 517 277 l 1,25,-1
 517 272 l 1,26,-1
 482 185 l 1,27,-1
 381 185 l 1,28,29
 380 92 380 92 375 0 c 1,30,-1
 338 0 l 1,31,32
 338 47 338 47 337 93 c 128,-1,33
 336 139 336 139 334 185 c 1,34,-1
 217 185 l 1,35,36
 216 92 216 92 211 0 c 1,37,-1
 174 0 l 1,0,1
EndSplineSet
EndChar

StartChar: eynyezi
Encoding: 31 69271 27
Width: 517
Flags: W
HStem: 0 92<62 381>
VStem: 381 44<92.0319 301.919>
LayerCount: 2
Fore
SplineSet
28 0 m 1,0,-1
 28 6 l 1,1,-1
 62 92 l 1,2,-1
 381 92 l 1,3,4
 379 174 379 174 368.5 258 c 128,-1,5
 358 342 358 342 335 416 c 1,6,-1
 395 463 l 1,7,-1
 400 463 l 1,8,9
 412 399 412 399 417 339.5 c 128,-1,10
 422 280 422 280 423.5 234.5 c 128,-1,11
 425 189 425 189 425 167 c 0,12,13
 425 100 425 100 411.5 59.5 c 128,-1,14
 398 19 398 19 386 0 c 1,15,-1
 28 0 l 1,0,-1
EndSplineSet
EndChar

StartChar: xheynyezi
Encoding: 32 69272 28
Width: 549
Flags: W
HStem: 0 21G<174 212.5 338 376.5> 103 86<66 170 217 334 381 482> 273 86<66 158 216 322 380 482>
VStem: 165 51<190.343 273> 170 47<0 103 189 271.718> 337 42<0 103 189 271.718>
LayerCount: 2
Fore
SplineSet
34 103 m 1,0,-1
 34 109 l 1,1,-1
 66 189 l 1,2,-1
 170 189 l 1,3,4
 168 232 168 232 165 273 c 1,5,-1
 34 273 l 1,6,-1
 34 279 l 1,7,-1
 66 359 l 1,8,-1
 158 359 l 1,9,10
 154 392 154 392 150 423 c 1,11,-1
 200 463 l 1,12,-1
 205 463 l 1,13,14
 210 413 210 413 213 359 c 1,15,-1
 322 359 l 1,16,17
 318 392 318 392 314 423 c 1,18,-1
 364 463 l 1,19,-1
 369 463 l 1,20,21
 374 413 374 413 377 359 c 1,22,-1
 515 359 l 1,23,-1
 515 354 l 1,24,-1
 482 273 l 1,25,-1
 380 273 l 1,26,27
 381 242 381 242 381 209 c 0,28,29
 381 199 381 199 381 189 c 1,30,-1
 515 189 l 1,31,-1
 515 184 l 1,32,-1
 482 103 l 1,33,-1
 379 103 l 1,34,35
 378 51 378 51 375 0 c 1,36,-1
 338 0 l 1,37,38
 338 54 338 54 337 103 c 1,39,-1
 215 103 l 1,40,41
 214 51 214 51 211 0 c 1,42,-1
 174 0 l 1,43,44
 174 54 174 54 173 103 c 1,45,-1
 34 103 l 1,0,-1
217 209 m 0,46,47
 217 199 217 199 217 189 c 1,48,-1
 334 189 l 1,49,50
 332 232 332 232 329 273 c 1,51,-1
 216 273 l 1,52,53
 217 242 217 242 217 209 c 0,46,47
EndSplineSet
EndChar

StartChar: fayezi
Encoding: 33 69273 29
Width: 463
Flags: W
HStem: 0 92<93 400>
VStem: 50.5 53.5<94.3125 412.874>
LayerCount: 2
Fore
SplineSet
53 0 m 1,0,-1
 53 6 l 2,1,2
 53 107 53 107 50.5 211.5 c 128,-1,3
 48 316 48 316 38 416 c 1,4,-1
 98 463 l 1,5,-1
 103 463 l 1,6,7
 104 444 104 444 104 425.5 c 128,-1,8
 104 407 104 407 104 388 c 0,9,10
 103 314 103 314 100 240 c 128,-1,11
 97 166 97 166 93 92 c 1,12,-1
 435 92 l 1,13,-1
 435 87 l 1,14,-1
 400 0 l 1,15,-1
 53 0 l 1,0,-1
EndSplineSet
EndChar

StartChar: vayezi
Encoding: 34 69274 30
Width: 372
Flags: W
HStem: -6 89<226.346 284.655>
VStem: 215 81<5.34668 72.1688>
LayerCount: 2
Fore
SplineSet
101 -5 m 1,0,-1
 80 14 l 1,1,2
 123 62 123 62 166 110 c 128,-1,3
 209 158 209 158 256 206 c 1,4,5
 140 297 140 297 40 385 c 1,6,-1
 40 391 l 1,7,-1
 103 463 l 1,8,9
 160 411 160 411 222 359 c 128,-1,10
 284 307 284 307 350 254 c 1,11,-1
 350 249 l 1,12,13
 282 185 282 185 219.5 122 c 128,-1,14
 157 59 157 59 101 -5 c 1,0,-1
256 -6 m 0,15,16
 237 -6 237 -6 226 5 c 128,-1,17
 215 16 215 16 215 39 c 256,18,19
 215 62 215 62 226 72.5 c 128,-1,20
 237 83 237 83 256 83 c 0,21,22
 274 83 274 83 285 72.5 c 128,-1,23
 296 62 296 62 296 39 c 256,24,25
 296 16 296 16 285 5 c 128,-1,26
 274 -6 274 -6 256 -6 c 0,15,16
EndSplineSet
EndChar

StartChar: vayezi.alt
Encoding: 35 69275 31
Width: 519
Flags: W
LayerCount: 2
Fore
SplineSet
146 -195 m 1,0,-1
 116 -180 l 1,1,-1
 115 -175 l 1,2,-1
 428 463 l 1,3,-1
 457 450 l 1,4,-1
 459 444 l 1,5,-1
 146 -195 l 1,0,-1
71 -98 m 1,6,-1
 41 -84 l 1,7,-1
 40 -79 l 1,8,-1
 302 457 l 1,9,-1
 331 443 l 1,10,-1
 333 437 l 1,11,-1
 71 -98 l 1,6,-1
EndSplineSet
EndChar

StartChar: qafyezi
Encoding: 36 69276 32
Width: 495
Flags: W
HStem: 0 92<51 217.521 270 445>
VStem: 214 58<-224.164 0> 232 38<-290.694 -12.1543>
LayerCount: 2
Fore
SplineSet
16 0 m 1,0,-1
 16 5 l 1,1,-1
 51 92 l 1,2,-1
 479 92 l 1,3,-1
 479 86 l 1,4,-1
 445 0 l 1,5,-1
 270 0 l 1,6,7
 272 -39 272 -39 272 -78 c 0,8,9
 272 -121 272 -121 270 -170 c 128,-1,10
 268 -219 268 -219 263 -293 c 1,11,-1
 231 -293 l 1,12,13
 232 -283 232 -283 232 -263.5 c 128,-1,14
 232 -244 232 -244 232 -216 c 0,15,16
 231 -152 231 -152 227.5 -104 c 128,-1,17
 224 -56 224 -56 214 0 c 1,18,-1
 16 0 l 1,0,-1
EndSplineSet
EndChar

StartChar: kafyezi
Encoding: 37 69277 33
Width: 485
Flags: W
VStem: 69 94<-26.2327 47.5937> 85 87<295.161 355.956>
LayerCount: 2
Fore
SplineSet
372 -293 m 1,0,-1
 164 -135 l 2,1,2
 112 -96 112 -96 90.5 -66 c 128,-1,3
 69 -36 69 -36 69 -5 c 0,4,5
 69 25 69 25 88.5 45.5 c 128,-1,6
 108 66 108 66 154 86 c 2,7,-1
 262 133 l 1,8,-1
 166 197 l 2,9,10
 121 227 121 227 103 251 c 128,-1,11
 85 275 85 275 85 303 c 0,12,13
 85 336 85 336 109 358 c 128,-1,14
 133 380 133 380 189 399 c 2,15,-1
 393 469 l 1,16,-1
 399 469 l 1,17,-1
 408 439 l 1,18,-1
 243 381 l 2,19,20
 200 366 200 366 186 356 c 128,-1,21
 172 346 172 346 172 329 c 0,22,23
 172 316 172 316 181 306.5 c 128,-1,24
 190 297 190 297 222 274 c 2,25,-1
 378 166 l 1,26,-1
 378 148 l 1,27,-1
 232 83 l 2,28,29
 192 65 192 65 177.5 52 c 128,-1,30
 163 39 163 39 163 19 c 256,31,32
 163 -1 163 -1 179.5 -20.5 c 128,-1,33
 196 -40 196 -40 241 -74 c 2,34,-1
 435 -220 l 1,35,-1
 378 -293 l 1,36,-1
 372 -293 l 1,0,-1
EndSplineSet
EndChar

StartChar: khafyezi
Encoding: 38 69278 34
Width: 485
Flags: W
VStem: 69 94<-26.2327 47.5937> 85 87<295.161 355.956>
LayerCount: 2
Fore
SplineSet
73 424 m 1,0,-1
 63 452 l 1,1,-1
 374 559 l 1,2,-1
 383 531 l 1,3,-1
 73 424 l 1,0,-1
372 -293 m 1,4,-1
 164 -135 l 2,5,6
 112 -96 112 -96 90.5 -66 c 128,-1,7
 69 -36 69 -36 69 -5 c 0,8,9
 69 25 69 25 88.5 45.5 c 128,-1,10
 108 66 108 66 154 86 c 2,11,-1
 262 133 l 1,12,-1
 166 197 l 2,13,14
 121 227 121 227 103 251 c 128,-1,15
 85 275 85 275 85 303 c 0,16,17
 85 336 85 336 109 358 c 128,-1,18
 133 380 133 380 189 399 c 2,19,-1
 393 469 l 1,20,-1
 399 469 l 1,21,-1
 408 439 l 1,22,-1
 243 381 l 2,23,24
 200 366 200 366 186 356 c 128,-1,25
 172 346 172 346 172 329 c 0,26,27
 172 316 172 316 181 306.5 c 128,-1,28
 190 297 190 297 222 274 c 2,29,-1
 378 166 l 1,30,-1
 378 148 l 1,31,-1
 232 83 l 2,32,33
 192 65 192 65 177.5 52 c 128,-1,34
 163 39 163 39 163 19 c 256,35,36
 163 -1 163 -1 179.5 -20.5 c 128,-1,37
 196 -40 196 -40 241 -74 c 2,38,-1
 435 -220 l 1,39,-1
 378 -293 l 1,40,-1
 372 -293 l 1,4,-1
EndSplineSet
EndChar

StartChar: gafyezi
Encoding: 39 69279 35
Width: 549
Flags: W
HStem: 0 21G<158 197.746 445.183 485.91>
LayerCount: 2
Fore
SplineSet
76 84 m 1,0,-1
 54 103 l 1,1,-1
 54 108 l 1,2,-1
 181 251 l 1,3,-1
 21 391 l 1,4,-1
 21 397 l 1,5,-1
 80 463 l 1,6,-1
 243 321 l 1,7,-1
 368 463 l 1,8,-1
 389 445 l 1,9,-1
 389 439 l 1,10,-1
 267 300 l 1,11,-1
 344 233 l 1,12,-1
 474 380 l 1,13,-1
 495 362 l 1,14,-1
 495 356 l 1,15,-1
 368 212 l 1,16,-1
 528 72 l 1,17,-1
 528 67 l 1,18,-1
 468 0 l 1,19,-1
 306 142 l 1,20,-1
 180 0 l 1,21,-1
 158 19 l 1,22,-1
 158 24 l 1,23,-1
 282 163 l 1,24,-1
 205 230 l 1,25,-1
 76 84 l 1,0,-1
EndSplineSet
EndChar

StartChar: lamyezi
Encoding: 40 69280 36
Width: 389
Flags: W
HStem: 0 92<55 233.707>
VStem: 267 50<123.444 547.967>
LayerCount: 2
Fore
SplineSet
16 0 m 1,0,-1
 16 5 l 1,1,-1
 55 92 l 1,2,-1
 148 92 l 2,3,4
 210 92 210 92 238.5 116.5 c 128,-1,5
 267 141 267 141 267 199 c 0,6,7
 267 271 267 271 261.5 360.5 c 128,-1,8
 256 450 256 450 245.5 545 c 128,-1,9
 235 640 235 640 220 727 c 1,10,-1
 279 770 l 1,11,-1
 284 770 l 1,12,13
 295 669 295 669 302 562 c 128,-1,14
 309 455 309 455 313 353 c 128,-1,15
 317 251 317 251 317 165 c 0,16,17
 317 81 317 81 279 40.5 c 128,-1,18
 241 0 241 0 159 0 c 2,19,-1
 16 0 l 1,0,-1
EndSplineSet
EndChar

StartChar: mimyezi
Encoding: 41 69281 37
Width: 399
Flags: W
HStem: 0 92<165.311 345>
VStem: 52 62<606.29 739.298>
LayerCount: 2
Fore
SplineSet
241 0 m 2,0,1
 159 0 159 0 123.5 40.5 c 128,-1,2
 88 81 88 81 83 165 c 2,3,-1
 52 735 l 1,4,-1
 109 770 l 1,5,-1
 114 770 l 1,6,-1
 130 199 l 2,7,8
 132 141 132 141 161.5 116.5 c 128,-1,9
 191 92 191 92 252 92 c 2,10,-1
 383 92 l 1,11,-1
 383 86 l 1,12,-1
 345 0 l 1,13,-1
 241 0 l 2,0,1
EndSplineSet
EndChar

StartChar: nunyezi
Encoding: 42 69282 38
Width: 643
Flags: W
HStem: 0 92<128 504>
VStem: 113 53<161.403 380.709> 497 49<123.155 398.288> 535 35<392.706 463>
LayerCount: 2
Fore
SplineSet
67 0 m 1,0,-1
 67 6 l 1,1,2
 90 66 90 66 101.5 128 c 128,-1,3
 113 190 113 190 113 259 c 0,4,5
 113 327 113 327 96.5 369 c 128,-1,6
 80 411 80 411 48 423 c 1,7,8
 52 447 52 447 66 457.5 c 128,-1,9
 80 468 80 468 99 468 c 0,10,11
 134 468 134 468 150 441 c 128,-1,12
 166 414 166 414 166 367 c 0,13,14
 166 330 166 330 161.5 283 c 128,-1,15
 157 236 157 236 148.5 186 c 128,-1,16
 140 136 140 136 128 92 c 1,17,-1
 504 92 l 1,18,19
 501 115 501 115 499 139.5 c 128,-1,20
 497 164 497 164 497 192 c 0,21,22
 497 266 497 266 508 337.5 c 128,-1,23
 519 409 519 409 535 463 c 1,24,-1
 570 463 l 1,25,26
 561 430 561 430 553.5 389 c 128,-1,27
 546 348 546 348 546 294 c 0,28,29
 546 185 546 185 579 86 c 1,30,-1
 544 0 l 1,31,-1
 67 0 l 1,0,-1
EndSplineSet
EndChar

StartChar: umyezi
Encoding: 43 69283 39
Width: 372
GlyphClass: 2
Flags: W
VStem: 40 310
AnchorPoint: "+BBEENQQ3BEsEPARPBD0EPQQ+BDUA--0" 196 495 basechar 0
LayerCount: 2
Fore
SplineSet
101 -5 m 1,0,-1
 80 14 l 1,1,2
 122 62 122 62 165.5 110 c 128,-1,3
 209 158 209 158 256 206 c 1,4,5
 140 297 140 297 40 385 c 1,6,-1
 40 391 l 1,7,-1
 103 463 l 1,8,9
 160 411 160 411 222 359 c 128,-1,10
 284 307 284 307 350 254 c 1,11,-1
 350 249 l 1,12,13
 282 185 282 185 219.5 122 c 128,-1,14
 157 59 157 59 101 -5 c 1,0,-1
EndSplineSet
EndChar

StartChar: wawyezi
Encoding: 44 69284 40
Width: 382
GlyphClass: 2
Flags: W
AnchorPoint: "+BBEENQQ3BEsEPARPBD0EPQQ+BDUA--0" 196 495 basechar 0
LayerCount: 2
Fore
SplineSet
101 -5 m 1,0,-1
 80 14 l 1,1,2
 122 62 122 62 165.5 110 c 128,-1,3
 209 158 209 158 256 206 c 1,4,5
 140 297 140 297 40 385 c 1,6,-1
 40 391 l 1,7,-1
 103 463 l 1,8,9
 160 411 160 411 222 359 c 128,-1,10
 284 307 284 307 350 254 c 1,11,-1
 350 249 l 1,12,13
 282 185 282 185 219.5 122 c 128,-1,14
 157 59 157 59 101 -5 c 1,0,-1
260 16 m 1,15,-1
 245 31 l 1,16,17
 262 50 262 50 281.5 71 c 128,-1,18
 301 92 301 92 319 111 c 1,19,-1
 320 111 l 1,20,21
 336 94 336 94 351.5 77.5 c 128,-1,22
 367 61 367 61 383 46 c 1,23,-1
 352 16 l 1,24,-1
 350 16 l 1,25,26
 338 27 338 27 327 39 c 128,-1,27
 316 51 316 51 305 63 c 1,28,29
 294 51 294 51 282 38.5 c 128,-1,30
 270 26 270 26 260 16 c 1,15,-1
EndSplineSet
EndChar

StartChar: owyezi
Encoding: 45 69285 41
Width: 387
GlyphClass: 2
Flags: W
AnchorPoint: "+BBEENQQ3BEsEPARPBD0EPQQ+BDUA--0" 196 495 basechar 0
LayerCount: 2
Fore
SplineSet
313 386 m 1,0,1
 297 403 297 403 281.5 419.5 c 128,-1,2
 266 436 266 436 250 451 c 1,3,-1
 281 481 l 1,4,-1
 283 481 l 1,5,6
 295 470 295 470 306 458 c 128,-1,7
 317 446 317 446 328 434 c 1,8,9
 339 446 339 446 351 458.5 c 128,-1,10
 363 471 363 471 373 481 c 1,11,-1
 388 466 l 1,12,13
 371 447 371 447 351.5 426.5 c 128,-1,14
 332 406 332 406 314 386 c 1,15,-1
 313 386 l 1,0,1
101 -5 m 1,16,-1
 80 14 l 1,17,18
 122 62 122 62 165.5 110 c 128,-1,19
 209 158 209 158 256 206 c 1,20,21
 140 297 140 297 40 385 c 1,22,-1
 40 391 l 1,23,-1
 103 463 l 1,24,25
 160 411 160 411 222 359 c 128,-1,26
 284 307 284 307 350 254 c 1,27,-1
 350 249 l 1,28,29
 282 185 282 185 219.5 122 c 128,-1,30
 157 59 157 59 101 -5 c 1,16,-1
EndSplineSet
EndChar

StartChar: ewyezi
Encoding: 46 69286 42
Width: 497
GlyphClass: 2
Flags: W
HStem: -11 84<180.584 329.488>
VStem: 58 61<130.298 267.636>
AnchorPoint: "+BBEENQQ3BEsEPARPBD0EPQQ+BDUA--0" 263 495 basechar 0
LayerCount: 2
Fore
SplineSet
233 -11 m 0,0,1
 150 -11 150 -11 104 32 c 128,-1,2
 58 75 58 75 58 148 c 0,3,4
 58 228 58 228 94 299.5 c 128,-1,5
 130 371 130 371 204 445 c 2,6,-1
 235 476 l 1,7,8
 317 449 317 449 363 410 c 128,-1,9
 409 371 409 371 428 324 c 128,-1,10
 447 277 447 277 447 225 c 0,11,12
 447 161 447 161 421 107 c 128,-1,13
 395 53 395 53 347 21 c 128,-1,14
 299 -11 299 -11 233 -11 c 0,0,1
276 73 m 0,15,16
 322 73 322 73 356.5 94 c 128,-1,17
 391 115 391 115 413 151 c 1,18,19
 403 217 403 217 366.5 267 c 128,-1,20
 330 317 330 317 283.5 347.5 c 128,-1,21
 237 378 237 378 195 389 c 1,22,23
 159 351 159 351 139 305 c 128,-1,24
 119 259 119 259 119 212 c 0,25,26
 119 143 119 143 161 108 c 128,-1,27
 203 73 203 73 276 73 c 0,15,16
EndSplineSet
EndChar

StartChar: hayyezi
Encoding: 47 69287 43
Width: 497
Flags: W
HStem: -11 84<176.086 329.953>
VStem: 58 61<125.701 247.606>
LayerCount: 2
Fore
SplineSet
233 -11 m 0,0,1
 150 -11 150 -11 104 32 c 128,-1,2
 58 75 58 75 58 148 c 0,3,4
 58 212 58 212 88.5 264.5 c 128,-1,5
 119 317 119 317 192 377 c 1,6,7
 168 386 168 386 142.5 394 c 128,-1,8
 117 402 117 402 92 409 c 1,9,-1
 131 503 l 1,10,11
 177 490 177 490 215 475.5 c 128,-1,12
 253 461 253 461 283 445 c 1,13,14
 304 459 304 459 327 474.5 c 128,-1,15
 350 490 350 490 376 507 c 1,16,-1
 393 483 l 1,17,18
 371 468 371 468 351.5 454 c 128,-1,19
 332 440 332 440 314 427 c 1,20,21
 389 381 389 381 418 328 c 128,-1,22
 447 275 447 275 447 225 c 0,23,24
 447 161 447 161 421 107 c 128,-1,25
 395 53 395 53 347 21 c 128,-1,26
 299 -11 299 -11 233 -11 c 0,0,1
119 192 m 0,27,28
 119 138 119 138 160 105.5 c 128,-1,29
 201 73 201 73 266 73 c 0,30,31
 318 73 318 73 354 94 c 128,-1,32
 390 115 390 115 413 150 c 1,33,34
 400 231 400 231 348.5 281 c 128,-1,35
 297 331 297 331 228 362 c 1,36,37
 172 316 172 316 145.5 276.5 c 128,-1,38
 119 237 119 237 119 192 c 0,27,28
EndSplineSet
EndChar

StartChar: yotyezi
Encoding: 48 69288 44
Width: 518
GlyphClass: 2
Flags: W
HStem: 0 92<107 403> 371 92<127 374.07>
VStem: 62 66<102.731 204.275 208.406 371> 403 52<-256.502 0 92 342.467>
AnchorPoint: "+BBEENQQ3BEsEPARPBD0EPQQ+BDUA--0" 266 495 basechar 0
LayerCount: 2
Fore
SplineSet
411 -293 m 1,0,1
 407 -246 407 -246 405 -199 c 128,-1,2
 403 -152 403 -152 403 -105 c 2,3,-1
 403 0 l 1,4,-1
 67 0 l 1,5,-1
 67 6 l 1,6,7
 82 120 82 120 82 207 c 0,8,9
 82 252 82 252 77.5 294 c 128,-1,10
 73 336 73 336 62 377 c 1,11,-1
 62 383 l 1,12,-1
 97 463 l 1,13,-1
 267 463 l 2,14,15
 327 463 327 463 364 449 c 128,-1,16
 401 435 401 435 421 411.5 c 128,-1,17
 441 388 441 388 448 358.5 c 128,-1,18
 455 329 455 329 455 298 c 2,19,-1
 455 27 l 2,20,21
 455 -34 455 -34 458.5 -106.5 c 128,-1,22
 462 -179 462 -179 474 -259 c 1,23,-1
 416 -293 l 1,24,-1
 411 -293 l 1,0,1
128 335 m 0,25,26
 128 273 128 273 121.5 211 c 128,-1,27
 115 149 115 149 107 92 c 1,28,-1
 403 92 l 1,29,-1
 403 264 l 2,30,31
 403 322 403 322 377.5 346.5 c 128,-1,32
 352 371 352 371 296 371 c 2,33,-1
 127 371 l 1,34,35
 128 352 128 352 128 335 c 0,25,26
EndSplineSet
EndChar

StartChar: etyezi
Encoding: 49 69289 45
Width: 518
GlyphClass: 2
Flags: W
HStem: 0 92<107 403> 371 92<127 374.07> 533 30<97 454>
VStem: 62 66<102.731 204.275 208.406 371> 403 52<-256.502 0 92 342.467>
AnchorPoint: "+BBEENQQ3BEsEPARPBD0EPQQ+BDUA--0" 256 595 basechar 0
LayerCount: 2
Fore
SplineSet
97 533 m 1,0,-1
 97 563 l 1,1,-1
 454 563 l 1,2,-1
 454 533 l 1,3,-1
 97 533 l 1,0,-1
411 -293 m 1,4,5
 407 -246 407 -246 405 -199 c 128,-1,6
 403 -152 403 -152 403 -105 c 2,7,-1
 403 0 l 1,8,-1
 67 0 l 1,9,-1
 67 6 l 1,10,11
 82 120 82 120 82 207 c 0,12,13
 82 252 82 252 77.5 294 c 128,-1,14
 73 336 73 336 62 377 c 1,15,-1
 62 383 l 1,16,-1
 97 463 l 1,17,-1
 267 463 l 2,18,19
 327 463 327 463 364 449 c 128,-1,20
 401 435 401 435 421 411.5 c 128,-1,21
 441 388 441 388 448 358.5 c 128,-1,22
 455 329 455 329 455 298 c 2,23,-1
 455 27 l 2,24,25
 455 -34 455 -34 458.5 -106.5 c 128,-1,26
 462 -179 462 -179 474 -259 c 1,27,-1
 416 -293 l 1,28,-1
 411 -293 l 1,4,5
128 335 m 0,29,30
 128 273 128 273 121.5 211 c 128,-1,31
 115 149 115 149 107 92 c 1,32,-1
 403 92 l 1,33,-1
 403 264 l 2,34,35
 403 322 403 322 377.5 346.5 c 128,-1,36
 352 371 352 371 296 371 c 2,37,-1
 127 371 l 1,38,39
 128 352 128 352 128 335 c 0,29,30
EndSplineSet
EndChar

StartChar: yotCircumyezi
Encoding: 54 69297 46
Width: 518
GlyphClass: 2
Flags: W
HStem: 0 92<107 403> 371 92<127 374.07>
VStem: 62 66<102.731 204.275 208.406 371> 403 52<-256.502 0 92 342.467>
AnchorPoint: "+BBEENQQ3BEsEPARPBD0EPQQ+BDUA--0" 266 795 basechar 0
LayerCount: 2
Fore
SplineSet
125 541 m 1,0,-1
 107 558 l 1,1,2
 151 605 151 605 199.5 657.5 c 128,-1,3
 248 710 248 710 291 764 c 1,4,-1
 295 764 l 1,5,6
 326 721 326 721 363.5 678.5 c 128,-1,7
 401 636 401 636 436 598 c 1,8,-1
 377 541 l 1,9,-1
 372 541 l 1,10,11
 308 613 308 613 258 684 c 1,12,13
 225 647 225 647 192.5 612 c 128,-1,14
 160 577 160 577 125 541 c 1,0,-1
411 -293 m 1,15,16
 407 -246 407 -246 405 -199 c 128,-1,17
 403 -152 403 -152 403 -105 c 2,18,-1
 403 0 l 1,19,-1
 67 0 l 1,20,-1
 67 6 l 1,21,22
 82 120 82 120 82 207 c 0,23,24
 82 252 82 252 77.5 294 c 128,-1,25
 73 336 73 336 62 377 c 1,26,-1
 62 383 l 1,27,-1
 97 463 l 1,28,-1
 267 463 l 2,29,30
 327 463 327 463 364 449 c 128,-1,31
 401 435 401 435 421 411.5 c 128,-1,32
 441 388 441 388 448 358.5 c 128,-1,33
 455 329 455 329 455 298 c 2,34,-1
 455 27 l 2,35,36
 455 -34 455 -34 458.5 -106.5 c 128,-1,37
 462 -179 462 -179 474 -259 c 1,38,-1
 416 -293 l 1,39,-1
 411 -293 l 1,15,16
128 335 m 0,40,41
 128 273 128 273 121.5 211 c 128,-1,42
 115 149 115 149 107 92 c 1,43,-1
 403 92 l 1,44,-1
 403 264 l 2,45,46
 403 322 403 322 377.5 346.5 c 128,-1,47
 352 371 352 371 296 371 c 2,48,-1
 127 371 l 1,49,50
 128 352 128 352 128 335 c 0,40,41
EndSplineSet
EndChar

StartChar: lamDotyezi
Encoding: 53 69296 47
Width: 389
Flags: W
HStem: 0 92<55 233.707> 824 89<216.346 274.655>
VStem: 205 81<835.347 902.169> 267 50<123.444 547.967>
LayerCount: 2
Fore
SplineSet
246 824 m 0,0,1
 227 824 227 824 216 835 c 128,-1,2
 205 846 205 846 205 869 c 256,3,4
 205 892 205 892 216 902.5 c 128,-1,5
 227 913 227 913 246 913 c 0,6,7
 264 913 264 913 275 902.5 c 128,-1,8
 286 892 286 892 286 869 c 256,9,10
 286 846 286 846 275 835 c 128,-1,11
 264 824 264 824 246 824 c 0,0,1
16 0 m 1,12,-1
 16 5 l 1,13,-1
 55 92 l 1,14,-1
 148 92 l 2,15,16
 210 92 210 92 238.5 116.5 c 128,-1,17
 267 141 267 141 267 199 c 0,18,19
 267 271 267 271 261.5 360.5 c 128,-1,20
 256 450 256 450 245.5 545 c 128,-1,21
 235 640 235 640 220 727 c 1,22,-1
 279 770 l 1,23,-1
 284 770 l 1,24,25
 295 669 295 669 302 562 c 128,-1,26
 309 455 309 455 313 353 c 128,-1,27
 317 251 317 251 317 165 c 0,28,29
 317 81 317 81 279 40.5 c 128,-1,30
 241 0 241 0 159 0 c 2,31,-1
 16 0 l 1,12,-1
EndSplineSet
EndChar

StartChar: hamzayezi
Encoding: 50 69291 48
Width: 0
GlyphClass: 4
Flags: W
HStem: 769 58<7.91797 77>
VStem: 34 65<629.499 682.5>
AnchorPoint: "+BBEENQQ3BEsEPARPBD0EPQQ+BDUA--0" 0 516 mark 0
LayerCount: 2
Fore
SplineSet
-15 559 m 1,0,-1
 -28 579 l 1,1,2
 13 609 13 609 23.5 619 c 128,-1,3
 34 629 34 629 34 636 c 0,4,5
 34 641 34 641 29 645.5 c 128,-1,6
 24 650 24 650 3 654 c 2,7,-1
 -43 662 l 2,8,9
 -89 671 -89 671 -89 705 c 0,10,11
 -89 737 -89 737 -59.5 764 c 128,-1,12
 -30 791 -30 791 14.5 808 c 128,-1,13
 59 825 59 825 104 827 c 1,14,-1
 77 769 l 1,15,16
 35 764 35 764 4 755 c 128,-1,17
 -27 746 -27 746 -38 730 c 1,18,-1
 42 716 l 2,19,20
 74 711 74 711 86.5 701.5 c 128,-1,21
 99 692 99 692 99 673 c 0,22,23
 99 662 99 662 91 647.5 c 128,-1,24
 83 633 83 633 59 612 c 128,-1,25
 35 591 35 591 -15 559 c 1,0,-1
EndSplineSet
EndChar

StartChar: maddayezi
Encoding: 51 69292 49
Width: 0
GlyphClass: 4
Flags: W
HStem: 622 71<143.65 430.329>
AnchorPoint: "+BBEENQQ3BEsEPARPBD0EPQQ+BDUA--1" 227.5 516 mark 0
LayerCount: 2
Fore
SplineSet
13.5 582 m 5,0,-1
 -7.5 605 l 5,1,-1
 122.5 720 l 5,2,-1
 128.5 720 l 5,3,4
 160 708 160 708 216 700.5 c 128,-1,5
 272 693 272 693 342.5 693 c 4,6,7
 386 693 386 693 417 696.5 c 132,-1,8
 448 700 448 700 467.5 704 c 5,9,-1
 471.5 700 l 5,10,-1
 431.5 632 l 5,11,12
 394 627 394 627 361.5 624.5 c 4,13,14
 328 622 328 622 296.5 622 c 4,15,16
 224 622 224 622 176 627.5 c 132,-1,17
 128 633 128 633 85.5 644 c 5,18,-1
 13.5 582 l 5,0,-1
EndSplineSet
EndChar

StartChar: hyphenyezi
Encoding: 52 69293 50
Width: 264
Flags: W
HStem: 485 241
VStem: 55 58<541 642.371>
LayerCount: 2
Fore
SplineSet
120 485 m 0,0,1
 95 485 95 485 75 504 c 128,-1,2
 55 523 55 523 55 559 c 0,3,4
 55 613 55 613 86.5 658 c 128,-1,5
 118 703 118 703 194 726 c 1,6,-1
 194 690 l 1,7,8
 113 663 113 663 113 614 c 0,9,10
 113 601 113 601 122.5 594 c 128,-1,11
 132 587 132 587 144.5 581 c 128,-1,12
 157 575 157 575 166.5 564.5 c 128,-1,13
 176 554 176 554 176 535 c 0,14,15
 176 512 176 512 160 498.5 c 128,-1,16
 144 485 144 485 120 485 c 0,0,1
EndSplineSet
EndChar

StartChar: uni060C
Encoding: 4 1548 51
Width: 212
Flags: W
HStem: -60 265
VStem: 40 73<-6.5 85.874>
LayerCount: 2
Fore
SplineSet
102 -60 m 0,0,1
 74 -60 74 -60 57 -39.5 c 128,-1,2
 40 -19 40 -19 40 6 c 256,3,4
 40 31 40 31 53.5 66 c 128,-1,5
 67 101 67 101 90.5 138 c 128,-1,6
 114 175 114 175 142 205 c 1,7,-1
 169 182 l 1,8,9
 153 165 153 165 140.5 139.5 c 128,-1,10
 128 114 128 114 120.5 89 c 128,-1,11
 113 64 113 64 113 46 c 0,12,13
 113 33 113 33 128 24 c 128,-1,14
 143 15 143 15 169 7 c 1,15,16
 165 -22 165 -22 146 -41 c 128,-1,17
 127 -60 127 -60 102 -60 c 0,0,1
EndSplineSet
EndChar

StartChar: uni061B
Encoding: 5 1563 52
Width: 212
Flags: W
VStem: 44 74<229.5 321.12>
LayerCount: 2
Fore
SplineSet
106 176 m 0,0,1
 78 176 78 176 61 196.5 c 128,-1,2
 44 217 44 217 44 242 c 256,3,4
 44 267 44 267 57.5 301.5 c 128,-1,5
 71 336 71 336 94.5 373 c 128,-1,6
 118 410 118 410 146 440 c 1,7,-1
 173 417 l 1,8,9
 157 400 157 400 144.5 375 c 128,-1,10
 132 350 132 350 125 325 c 128,-1,11
 118 300 118 300 118 282 c 0,12,13
 118 269 118 269 133 260 c 128,-1,14
 148 251 148 251 173 243 c 1,15,16
 169 213 169 213 150.5 194.5 c 128,-1,17
 132 176 132 176 106 176 c 0,0,1
125 -66 m 1,18,19
 101 -49 101 -49 81 -36 c 128,-1,20
 61 -23 61 -23 46 -14 c 1,21,22
 51 -3 51 -3 57 6.5 c 128,-1,23
 63 16 63 16 67 26 c 0,24,25
 77 44 77 44 90 64 c 1,26,27
 167 19 167 19 167 5 c 0,28,29
 167 -6 167 -6 125 -66 c 1,18,19
EndSplineSet
EndChar

StartChar: uni061F
Encoding: 6 1567 53
Width: 425
Flags: W
HStem: 476 86<163.293 310.479>
VStem: 208 65<124.045 216.586>
LayerCount: 2
Fore
SplineSet
239 98 m 1,0,-1
 201 122 l 1,1,2
 205 142 205 142 206.5 155.5 c 128,-1,3
 208 169 208 169 208 176 c 0,4,5
 208 196 208 196 192 211 c 0,6,7
 185 219 185 219 170 229 c 128,-1,8
 155 239 155 239 132 252 c 0,9,10
 55 293 55 293 55 363 c 0,11,12
 55 410 55 410 81.5 457.5 c 128,-1,13
 108 505 108 505 151 533 c 0,14,15
 195 562 195 562 243 562 c 0,16,17
 316 562 316 562 359 516 c 0,18,19
 373 500 373 500 373 483 c 0,20,21
 373 454 373 454 343 428 c 1,22,23
 313 456 313 456 290 466 c 128,-1,24
 267 476 267 476 232 476 c 0,25,26
 186 476 186 476 147 446 c 128,-1,27
 108 416 108 416 91 366 c 1,28,29
 113 353 113 353 141 340 c 128,-1,30
 169 327 169 327 196.5 312.5 c 128,-1,31
 224 298 224 298 243 278 c 0,32,33
 273 247 273 247 273 208 c 0,34,35
 273 165 273 165 239 98 c 1,0,-1
217 -71 m 1,36,37
 192 -53 192 -53 175 -41.5 c 128,-1,38
 158 -30 158 -30 138 -19 c 1,39,40
 144 -8 144 -8 149.5 1.5 c 128,-1,41
 155 11 155 11 159 21 c 0,42,43
 169 39 169 39 182 59 c 1,44,45
 202 47 202 47 217 38 c 128,-1,46
 232 29 232 29 241 21 c 0,47,48
 258 6 258 6 258 0 c 0,49,50
 258 -11 258 -11 217 -71 c 1,36,37
EndSplineSet
EndChar

StartChar: uni06D4
Encoding: 7 1748 54
Width: 243
Flags: W
HStem: 0 76<41 203>
VStem: 41 162<0 76>
LayerCount: 2
Fore
SplineSet
44 0 m 2,0,1
 41 0 41 0 41 3 c 2,2,-1
 41 73 l 2,3,4
 41 76 41 76 44 76 c 2,5,-1
 198 76 l 2,6,7
 203 76 203 76 203 73 c 2,8,-1
 203 3 l 2,9,10
 203 0 203 0 198 0 c 2,11,-1
 44 0 l 2,0,1
EndSplineSet
EndChar

StartChar: dotcircle
Encoding: 56 9676 56
Width: 457
Flags: W
HStem: 23 42.7998<204.801 247.598> 37.7998 42.4004<136.002 172.006 273.601 309.799> 76.2002 42.7998<75.2018 117.998 340.794 370.405> 137 42.4004<36.8014 72.9996 379.194 408.806> 205.8 42.4004<28.601 64.7982 393.994 423.605> 274.6 42.4004<36.8014 72.9996 379.194 408.806> 335 42.7998<75.2018 117.998 340.794 370.405> 373.8 42.4004<136.002 172.006 273.601 309.799> 388.2 42.7998<204.801 247.598>
VStem: 22 42.7998<212.194 241.806> 36.7998 42.7998<143.395 173.006 280.994 310.605> 75.2002 42.7998<76.2018 118.998 335.002 377.798> 136 42.4004<44.1944 73.8056 380.194 416.186> 204.8 42.7998<23.0016 65.7982 388.202 430.998> 273.6 42.8008<44.1944 73.8056 380.194 416.199> 334.4 42.3994<76.2018 112.399 341.601 377.798> 372.8 42.4004<143.395 173.006 280.994 310.605> 387.6 42.4004<212.194 241.806>
AnchorPoint: "+BBEENQQ3BEsEPARPBD0EPQQ+BDUA--0" 224 495 basechar 0
LayerCount: 2
Fore
SplineSet
204.799804688 409.799804688 m 0,0,1
 204.799804688 418.200195312 204.799804688 418.200195312 211.200195312 424.599609375 c 128,-1,2
 217.600585938 431.001953125 217.600585938 431.001953125 226 431 c 0,3,4
 234.799804688 431 234.799804688 431 241.200195312 424.599609375 c 128,-1,5
 247.599609375 418.200195312 247.599609375 418.200195312 247.599609375 409.799804688 c 0,6,7
 247.599609375 401 247.599609375 401 241.200195312 394.599609375 c 128,-1,8
 234.799804688 388.198242188 234.799804688 388.198242188 226 388.200195312 c 0,9,10
 217.599609375 388.200195312 217.599609375 388.200195312 211.200195312 394.599609375 c 128,-1,11
 204.799804688 401 204.799804688 401 204.799804688 409.799804688 c 0,0,1
136 395 m 0,12,13
 136 403.400390625 136 403.400390625 142.400390625 409.799804688 c 128,-1,14
 148.799804688 416.202148438 148.799804688 416.202148438 157.200195312 416.200195312 c 0,15,16
 166 416.200195312 166 416.200195312 172.200195312 409.799804688 c 128,-1,17
 178.400390625 403.397460938 178.400390625 403.397460938 178.400390625 395 c 0,18,19
 178.400390625 386.200195312 178.400390625 386.200195312 172.200195312 380 c 128,-1,20
 166 373.799804688 166 373.799804688 157.200195312 373.799804688 c 0,21,22
 148.799804688 373.799804688 148.799804688 373.799804688 142.400390625 380 c 128,-1,23
 136 386.19921875 136 386.19921875 136 395 c 0,12,13
273.599609375 395 m 0,24,25
 273.599609375 403.400390625 273.599609375 403.400390625 280 409.799804688 c 128,-1,26
 286.400390625 416.202148438 286.400390625 416.202148438 294.799804688 416.200195312 c 0,27,28
 303.600585938 416.200195312 303.600585938 416.200195312 310 409.799804688 c 128,-1,29
 316.400390625 403.400390625 316.400390625 403.400390625 316.400390625 395 c 0,30,31
 316.400390625 386.19921875 316.400390625 386.19921875 310 380 c 128,-1,32
 303.599609375 373.799804688 303.599609375 373.799804688 294.799804688 373.799804688 c 0,33,34
 286.400390625 373.799804688 286.400390625 373.799804688 280 380 c 128,-1,35
 273.599609375 386.19921875 273.599609375 386.19921875 273.599609375 395 c 0,24,25
75.2001953125 356.599609375 m 0,36,37
 75.2001953125 365 75.2001953125 365 81.599609375 371.400390625 c 128,-1,38
 88 377.799804688 88 377.799804688 96.7998046875 377.799804688 c 0,39,40
 105.200195312 377.799804688 105.200195312 377.799804688 111.599609375 371.400390625 c 128,-1,41
 118 365 118 365 118 356.599609375 c 0,42,43
 118 347.799804688 118 347.799804688 111.599609375 341.400390625 c 128,-1,44
 105.200195312 335 105.200195312 335 96.7998046875 335 c 0,45,46
 88 335 88 335 81.599609375 341.400390625 c 128,-1,47
 75.2001953125 347.799804688 75.2001953125 347.799804688 75.2001953125 356.599609375 c 0,36,37
334.400390625 356.599609375 m 0,48,49
 334.400390625 365 334.400390625 365 340.599609375 371.400390625 c 128,-1,50
 346.799804688 377.799804688 346.799804688 377.799804688 355.599609375 377.799804688 c 128,-1,51
 364.400390625 377.799804688 364.400390625 377.799804688 370.599609375 371.400390625 c 128,-1,52
 376.799804688 365 376.799804688 365 376.799804688 356.599609375 c 0,53,54
 376.799804688 347.799804688 376.799804688 347.799804688 370.599609375 341.400390625 c 128,-1,55
 364.400390625 335 364.400390625 335 355.599609375 335 c 128,-1,56
 346.799804688 335 346.799804688 335 340.599609375 341.400390625 c 128,-1,57
 334.400390625 347.799804688 334.400390625 347.799804688 334.400390625 356.599609375 c 0,48,49
36.7998046875 295.799804688 m 128,-1,59
 36.7998046875 304.600585938 36.7998046875 304.600585938 43.2001953125 310.799804688 c 128,-1,60
 49.6005859375 317 49.6005859375 317 58 317 c 0,61,62
 66.7998046875 317 66.7998046875 317 73.2001953125 310.799804688 c 128,-1,63
 79.6005859375 304.600585938 79.6005859375 304.600585938 79.599609375 295.799804688 c 128,-1,64
 79.599609375 287 79.599609375 287 73.2001953125 280.799804688 c 128,-1,65
 66.7998046875 274.600585938 66.7998046875 274.600585938 58 274.599609375 c 0,66,67
 49.599609375 274.599609375 49.599609375 274.599609375 43.2001953125 280.799804688 c 128,-1,58
 36.7998046875 287 36.7998046875 287 36.7998046875 295.799804688 c 128,-1,59
372.799804688 295.799804688 m 128,-1,69
 372.799804688 304.600585938 372.799804688 304.600585938 379 310.799804688 c 128,-1,70
 385.198242188 317 385.198242188 317 394 317 c 128,-1,71
 402.801757812 317 402.801757812 317 409 310.799804688 c 128,-1,72
 415.198242188 304.600585938 415.198242188 304.600585938 415.200195312 295.799804688 c 128,-1,73
 415.200195312 287 415.200195312 287 409 280.799804688 c 128,-1,74
 402.801757812 274.600585938 402.801757812 274.600585938 394 274.599609375 c 128,-1,75
 385.198242188 274.599609375 385.198242188 274.599609375 379 280.799804688 c 128,-1,68
 372.799804688 287 372.799804688 287 372.799804688 295.799804688 c 128,-1,69
22 227 m 128,-1,77
 22 235.799804688 22 235.799804688 28.400390625 242 c 128,-1,78
 34.7998046875 248.200195312 34.7998046875 248.200195312 43.599609375 248.200195312 c 0,79,80
 52 248.200195312 52 248.200195312 58.400390625 242 c 128,-1,81
 64.7998046875 235.799804688 64.7998046875 235.799804688 64.7998046875 227 c 128,-1,82
 64.7998046875 218.200195312 64.7998046875 218.200195312 58.400390625 212 c 128,-1,83
 52 205.799804688 52 205.799804688 43.599609375 205.799804688 c 0,84,85
 34.7998046875 205.799804688 34.7998046875 205.799804688 28.400390625 212 c 128,-1,76
 22 218.200195312 22 218.200195312 22 227 c 128,-1,77
387.599609375 227 m 128,-1,87
 387.599609375 235.799804688 387.599609375 235.799804688 393.799804688 242 c 128,-1,88
 399.998046875 248.200195312 399.998046875 248.200195312 408.799804688 248.200195312 c 128,-1,89
 417.6015625 248.200195312 417.6015625 248.200195312 423.799804688 242 c 128,-1,90
 429.998046875 235.799804688 429.998046875 235.799804688 430 227 c 128,-1,91
 430 218.200195312 430 218.200195312 423.799804688 212 c 128,-1,92
 417.6015625 205.799804688 417.6015625 205.799804688 408.799804688 205.799804688 c 128,-1,93
 399.998046875 205.799804688 399.998046875 205.799804688 393.799804688 212 c 128,-1,86
 387.6015625 218.200195312 387.6015625 218.200195312 387.599609375 227 c 128,-1,87
36.7998046875 158.200195312 m 128,-1,95
 36.7998046875 167 36.7998046875 167 43.2001953125 173.200195312 c 128,-1,96
 49.6005859375 179.399414062 49.6005859375 179.399414062 58 179.400390625 c 0,97,98
 66.7998046875 179.400390625 66.7998046875 179.400390625 73.2001953125 173.200195312 c 128,-1,99
 79.6005859375 167 79.6005859375 167 79.599609375 158.200195312 c 128,-1,100
 79.599609375 149.399414062 79.599609375 149.399414062 73.2001953125 143.200195312 c 128,-1,101
 66.7998046875 137 66.7998046875 137 58 137 c 0,102,103
 49.599609375 137 49.599609375 137 43.2001953125 143.200195312 c 128,-1,94
 36.7998046875 149.399414062 36.7998046875 149.399414062 36.7998046875 158.200195312 c 128,-1,95
372.799804688 158.200195312 m 128,-1,105
 372.799804688 167 372.799804688 167 379 173.200195312 c 128,-1,106
 385.198242188 179.399414062 385.198242188 179.399414062 394 179.400390625 c 128,-1,107
 402.801757812 179.400390625 402.801757812 179.400390625 409 173.200195312 c 128,-1,108
 415.198242188 167 415.198242188 167 415.200195312 158.200195312 c 128,-1,109
 415.200195312 149.399414062 415.200195312 149.399414062 409 143.200195312 c 128,-1,110
 402.801757812 137 402.801757812 137 394 137 c 128,-1,111
 385.198242188 137 385.198242188 137 379 143.200195312 c 128,-1,104
 372.799804688 149.399414062 372.799804688 149.399414062 372.799804688 158.200195312 c 128,-1,105
75.2001953125 97.400390625 m 0,112,113
 75.2001953125 106.200195312 75.2001953125 106.200195312 81.599609375 112.599609375 c 128,-1,114
 88 119 88 119 96.7998046875 119 c 0,115,116
 105.200195312 119 105.200195312 119 111.599609375 112.599609375 c 128,-1,117
 118 106.200195312 118 106.200195312 118 97.400390625 c 0,118,119
 118 89 118 89 111.599609375 82.599609375 c 128,-1,120
 105.200195312 76.2001953125 105.200195312 76.2001953125 96.7998046875 76.2001953125 c 0,121,122
 88 76.2001953125 88 76.2001953125 81.599609375 82.599609375 c 128,-1,123
 75.2001953125 89 75.2001953125 89 75.2001953125 97.400390625 c 0,112,113
334.400390625 97.400390625 m 0,124,125
 334.400390625 106.200195312 334.400390625 106.200195312 340.599609375 112.599609375 c 128,-1,126
 346.799804688 119 346.799804688 119 355.599609375 119 c 128,-1,127
 364.400390625 119 364.400390625 119 370.599609375 112.599609375 c 128,-1,128
 376.799804688 106.200195312 376.799804688 106.200195312 376.799804688 97.400390625 c 0,129,130
 376.799804688 89 376.799804688 89 370.599609375 82.599609375 c 128,-1,131
 364.400390625 76.2001953125 364.400390625 76.2001953125 355.599609375 76.2001953125 c 128,-1,132
 346.799804688 76.2001953125 346.799804688 76.2001953125 340.599609375 82.599609375 c 128,-1,133
 334.400390625 89 334.400390625 89 334.400390625 97.400390625 c 0,124,125
136 59 m 128,-1,135
 136 67.7998046875 136 67.7998046875 142.400390625 74 c 128,-1,136
 148.799804688 80.2001953125 148.799804688 80.2001953125 157.200195312 80.2001953125 c 0,137,138
 166 80.2001953125 166 80.2001953125 172.200195312 74 c 128,-1,139
 178.399414062 67.7998046875 178.399414062 67.7998046875 178.400390625 59 c 128,-1,140
 178.400390625 50.2001953125 178.400390625 50.2001953125 172.200195312 44 c 128,-1,141
 166 37.7998046875 166 37.7998046875 157.200195312 37.7998046875 c 0,142,143
 148.799804688 37.7998046875 148.799804688 37.7998046875 142.400390625 44 c 128,-1,134
 136 50.2001953125 136 50.2001953125 136 59 c 128,-1,135
273.599609375 59 m 128,-1,145
 273.599609375 67.7998046875 273.599609375 67.7998046875 280 74 c 128,-1,146
 286.400390625 80.2001953125 286.400390625 80.2001953125 294.799804688 80.2001953125 c 0,147,148
 303.600585938 80.2001953125 303.600585938 80.2001953125 310 74 c 128,-1,149
 316.400390625 67.7998046875 316.400390625 67.7998046875 316.400390625 59 c 128,-1,150
 316.400390625 50.2001953125 316.400390625 50.2001953125 310 44 c 128,-1,151
 303.599609375 37.7998046875 303.599609375 37.7998046875 294.799804688 37.7998046875 c 0,152,153
 286.400390625 37.7998046875 286.400390625 37.7998046875 280 44 c 128,-1,144
 273.599609375 50.2001953125 273.599609375 50.2001953125 273.599609375 59 c 128,-1,145
204.799804688 44.2001953125 m 0,154,155
 204.799804688 53 204.799804688 53 211.200195312 59.400390625 c 128,-1,156
 217.600585938 65.7998046875 217.600585938 65.7998046875 226 65.7998046875 c 0,157,158
 234.799804688 65.7998046875 234.799804688 65.7998046875 241.200195312 59.400390625 c 128,-1,159
 247.600585938 53 247.600585938 53 247.599609375 44.2001953125 c 0,160,161
 247.599609375 35.7998046875 247.599609375 35.7998046875 241.200195312 29.400390625 c 128,-1,162
 234.799804688 23 234.799804688 23 226 23 c 0,163,164
 217.599609375 23 217.599609375 23 211.200195312 29.400390625 c 128,-1,165
 204.799804688 35.7998046875 204.799804688 35.7998046875 204.799804688 44.2001953125 c 0,154,155
EndSplineSet
EndChar
